<svg width="2448" height="1272" viewBox="0 0 2448 1272" fill="none" xmlns="http://www.w3.org/2000/svg">
<path d="M226.546 611.915L277.057 453.452L2228.96 412L2286.47 570.462L2448 641.823V913.623L2379.99 970.292L2286.47 1211.66L226.546 1272L151.031 1056.87L0 970.292L39.5081 641.823L226.546 611.915Z" fill="#FF8101"/>
<path d="M281 380.5L302.5 1L2046 19.5L2082.5 334.5L281 380.5Z" fill="black" stroke="black"/>
<path d="M440.671 566.559L425.956 608.753C420.616 603.042 415.757 598.318 411.381 594.58C409.661 593.084 407.867 591.744 406.001 590.558C404.131 589.219 402.423 588.259 400.876 587.68C399.33 587.1 398.025 587.052 396.962 587.536C395.896 587.866 395.228 588.878 394.958 590.571C394.416 593.803 395.01 596.398 396.74 598.353C398.62 600.152 401.035 601.863 403.985 603.485C407.088 605.104 410.274 607.028 413.544 609.256C416.967 611.481 419.871 614.485 422.254 618.267C425.758 624.171 427.821 630.797 428.443 638.145C429.062 645.34 428.605 652.482 427.074 659.571C425.54 666.506 423.151 672.924 419.906 678.823C416.662 684.723 413.082 689.326 409.167 692.633C403.743 697.046 398.282 699.774 392.784 700.815C387.435 701.7 382.14 701.51 376.897 700.245C371.651 698.826 366.769 696.48 362.249 693.205C357.882 689.927 353.969 686.332 350.509 682.421L367.887 635.797C372.757 641.058 377.224 645.408 381.287 648.846C383.007 650.341 384.724 651.684 386.437 652.873C388.304 654.059 389.934 654.943 391.327 655.526C392.873 656.106 394.181 656.307 395.251 656.13C396.321 655.953 397.147 655.168 397.73 653.775C398.739 650.839 398.841 648.536 398.038 646.867C397.234 645.197 395.821 643.695 393.798 642.359C391.771 640.87 389.283 639.314 386.333 637.692C383.383 636.07 380.039 633.919 376.299 631.241C373.802 629.302 371.513 626.362 369.433 622.42C367.352 618.478 366.025 613.906 365.45 608.704C364.876 603.502 365.056 597.747 365.99 591.438C366.925 585.13 369.158 578.562 372.688 571.736C376.066 564.913 379.937 559.614 384.301 555.837C388.666 552.06 393.058 549.509 397.476 548.185C402.045 546.704 406.637 546.296 411.253 546.962C415.865 547.474 420.111 548.76 423.991 550.822C427.867 552.731 431.293 555.109 434.27 557.958C437.244 560.653 439.377 563.52 440.671 566.559ZM459.979 546.119L491.926 544.726L480.946 610.303L498.361 607.159L505.283 545.352L534.716 544.704L515.931 694.654L486.958 695.292L491.103 643.208L476.682 646.516L471.817 697.235L443.268 696.253L459.979 546.119ZM619.647 544.676L622.35 688.401L586.33 692.875L586.541 660.662L571.651 663.52L565.676 695.17L532.329 695.673L564.011 546.36L619.647 544.676ZM574.665 643.669L590.884 638.481L587.216 586.799L574.665 643.669ZM670.385 692.405L669.105 634.229L661.417 692.602L629.225 693.311L648.005 543.131L680.402 541.268C681.322 541.248 682.932 541.212 685.231 541.162C687.684 541.108 690.453 541.507 693.539 542.359C696.775 543.055 699.95 544.442 703.063 546.521C706.326 548.443 709.075 551.373 711.309 555.311C713.696 559.246 715.418 564.346 716.477 570.611C717.688 576.873 717.628 584.619 716.298 593.851C714.861 605.232 712.156 614.724 708.182 622.326C704.359 629.772 700.116 635.617 695.455 639.861L707.33 688.141L670.385 692.405ZM687.421 598.857C687.776 594.095 687.617 590.341 686.943 587.595C686.269 584.849 685.076 582.882 683.362 581.693C681.646 580.35 679.866 579.622 678.023 579.51C676.177 579.243 674.647 579.431 673.434 580.071L670.3 615.338C673.066 615.584 675.588 615.222 677.867 614.251C679.993 613.284 681.952 611.708 683.745 609.521C685.534 607.181 686.759 603.627 687.421 598.857ZM739.23 543.884L806.293 538.727L801.731 582.308L763.423 576.94L761.003 592.407L792.47 590.104L787.473 634.845L757.56 634.583L754.223 660.653L793.581 651.044L787.578 691.896L720.741 696.818L739.23 543.884ZM984.595 602.439C984.595 602.439 984.452 602.903 984.166 603.829C984.029 604.599 983.815 605.294 983.521 605.914L983.976 605.674C983.554 607.37 983.339 608.065 983.332 607.759C983.326 621.409 972.328 633.92 950.34 645.294C950.34 645.294 948.969 645.707 946.226 646.534C943.484 647.362 939.293 648.604 933.655 650.262C927.261 652.396 924.06 653.31 924.053 653.004L924.529 674.619C924.586 677.225 922.974 680.634 919.693 684.848L920.148 684.607C916.26 689.141 912.246 691.453 908.107 691.544C903.815 691.639 899.784 689.657 896.014 685.599C892.097 681.851 890.106 678.52 890.042 675.608L889.627 656.752C889.621 656.446 889.214 655.381 888.407 653.558L887.947 653.568L887.942 653.339C887.002 652.439 883.674 651.055 877.958 649.187C873.015 647.609 868.921 646.242 865.675 645.086C862.425 643.778 859.714 642.534 857.541 641.355C849.468 636.931 845.354 631.194 845.199 624.142C845.132 621.076 847.193 617.196 851.384 612.503C853.49 610.616 855.448 608.963 857.257 607.543C859.219 606.119 861.197 605.385 863.19 605.342C863.803 605.328 864.573 605.464 865.499 605.751C867.972 606.617 870.604 607.709 873.393 609.028C876.336 610.343 879.203 611.661 881.992 612.98C884.782 614.299 887.492 615.466 890.121 616.482C892.748 617.344 895.134 617.752 897.28 617.704L898.66 617.674C899.12 617.664 899.503 617.655 899.809 617.649C900.266 617.485 900.647 617.4 900.954 617.393C903.1 617.346 905.788 617.517 909.017 617.906C912.247 618.295 916.007 618.443 920.3 618.348C924.745 618.25 929.93 616.909 935.855 614.325C939.51 613.171 943.359 610.325 947.4 605.789C948.746 604.225 949.414 603.214 949.404 602.754C949.34 599.841 944.148 597.425 933.83 595.505C930.298 595.276 926.995 595.042 923.923 594.803C921 594.407 918.002 594.089 914.929 593.85C911.55 593.618 908.171 593.386 904.792 593.153C901.409 592.768 898.026 592.382 894.644 591.996C876.967 590.238 865.548 587.039 860.384 582.398C853.834 577.481 850.48 571.42 850.322 564.215C850.15 556.397 857.15 546.964 871.324 535.916C872.993 535.112 874.963 533.995 877.232 532.565C879.497 530.981 882.296 529.233 885.628 527.319C887.278 525.596 888.051 522.434 887.95 517.836L887.834 512.547C887.773 509.787 887.714 507.105 887.657 504.499C887.749 501.736 888.017 499.966 888.46 499.19L888.47 499.65C888.753 498.57 889.419 497.482 890.469 496.385C891.515 495.135 892.794 494.033 894.307 493.08C895.82 492.126 897.414 491.401 899.09 490.904C900.763 490.254 902.289 489.913 903.669 489.883C907.961 489.788 911.274 490.482 913.607 491.965C916.094 493.444 917.975 495.319 919.252 497.592C920.526 499.711 921.346 502.147 921.714 504.899C922.078 507.499 922.285 509.948 922.336 512.248C922.349 512.861 922.286 513.476 922.146 514.092C922.156 514.552 922.168 515.089 922.182 515.702L922.217 517.311L933.714 517.058C935.401 517.021 936.549 516.919 937.158 516.753C937.925 516.736 938.69 516.642 939.453 516.472C939.756 516.312 940.751 516.213 942.437 516.176L945.426 516.11C947.726 516.06 950.032 516.316 952.345 516.878C954.808 517.284 956.971 518.004 958.834 519.036C960.85 520.065 962.49 521.41 963.754 523.069C965.014 524.575 965.666 526.324 965.71 528.317C965.727 529.084 965.52 530.162 965.091 531.551C964.815 532.938 964.158 534.486 963.122 536.196C960.771 540.849 958.452 543.507 956.166 544.171C952.811 545.012 948.45 545.491 943.085 545.609L941.245 545.65C936.646 545.751 925.558 547.145 907.979 549.833C905.07 550.05 901.884 551.654 898.423 554.644C895.254 557.014 893.68 558.659 893.7 559.579C893.717 560.346 897.945 560.789 906.383 560.91C910.375 561.129 914.366 561.271 918.355 561.337C922.497 561.399 926.563 561.463 930.552 561.529C948.398 564.05 961.76 568.357 970.636 574.45L970.176 574.46C971.263 575.05 972.359 576.099 973.466 577.608C974.723 578.961 976.221 580.845 977.962 583.261L977.957 583.031C982.207 587.999 984.42 594.468 984.595 602.439ZM1031.47 684.458L1030.19 626.282L1022.5 684.655L990.31 685.364L1009.09 535.184L1041.49 533.321C1042.41 533.301 1044.02 533.265 1046.32 533.215C1048.77 533.161 1051.54 533.56 1054.62 534.412C1057.86 535.108 1061.03 536.495 1064.15 538.574C1067.41 540.496 1070.16 543.426 1072.39 547.364C1074.78 551.299 1076.5 556.399 1077.56 562.664C1078.77 568.926 1078.71 576.672 1077.38 585.904C1075.95 597.285 1073.24 606.777 1069.27 614.379C1065.44 621.825 1061.2 627.67 1056.54 631.914L1068.41 680.194L1031.47 684.458ZM1048.51 590.91C1048.86 586.148 1048.7 582.394 1048.03 579.648C1047.35 576.902 1046.16 574.935 1044.45 573.746C1042.73 572.403 1040.95 571.675 1039.11 571.563C1037.26 571.296 1035.73 571.483 1034.52 572.124L1031.38 607.391C1034.15 607.637 1036.67 607.275 1038.95 606.304C1041.08 605.337 1043.04 603.761 1044.83 601.574C1046.62 599.234 1047.84 595.679 1048.51 590.91ZM1135.98 530.091C1141.65 529.966 1146.68 531.926 1151.07 535.97C1155.45 539.862 1159.09 545.303 1162.01 552.294C1164.92 559.131 1166.86 567.217 1167.83 576.551C1168.81 585.886 1168.72 595.857 1167.57 606.464C1166.27 617.076 1163.96 627.095 1160.64 636.524C1157.47 645.949 1153.59 654.164 1148.99 661.166C1144.54 668.166 1139.61 673.796 1134.18 678.056C1128.9 682.16 1123.43 684.275 1117.75 684.399C1112.24 684.521 1107.21 682.638 1102.68 678.75C1098.29 674.705 1094.65 669.264 1091.73 662.427C1088.82 655.589 1086.8 647.505 1085.68 638.174C1084.71 628.84 1084.87 618.867 1086.17 608.256C1087.32 597.648 1089.55 587.63 1092.87 578.201C1096.19 568.772 1100.07 560.558 1104.52 553.559C1109.12 546.403 1114.13 540.771 1119.56 536.664C1124.99 532.403 1130.46 530.212 1135.98 530.091ZM1122.91 636.664C1125.83 636.6 1128.52 633.473 1130.99 627.284C1133.61 621.092 1135.36 613.461 1136.24 604.393C1137.27 595.628 1137.18 588.192 1135.98 582.084C1134.77 575.975 1132.71 572.953 1129.8 573.017C1127.04 573.078 1124.34 576.205 1121.72 582.397C1119.1 588.59 1117.34 596.067 1116.46 604.829C1115.44 613.9 1115.53 621.49 1116.73 627.598C1118.09 633.703 1120.16 636.725 1122.91 636.664ZM1257.02 597.364C1256.46 606.732 1255.35 615.805 1253.71 624.583C1253.02 628.279 1252.11 632.134 1250.97 636.146C1249.98 640.156 1248.77 644.094 1247.32 647.96C1245.87 651.826 1244.11 655.545 1242.04 659.118C1239.97 662.692 1237.74 665.885 1235.35 668.698C1228.04 678.061 1219.41 682.852 1209.44 683.072C1203.62 683.2 1198.36 681.322 1193.67 677.437C1188.99 673.553 1185.03 668.195 1181.82 661.364C1178.6 654.38 1176.42 646.223 1175.3 636.892C1174.17 627.561 1174.18 617.592 1175.33 606.984C1176.63 596.373 1178.86 586.354 1182.03 576.929C1185.35 567.5 1189.31 559.285 1193.91 552.282C1198.51 545.125 1203.52 539.494 1208.95 535.387C1214.38 531.126 1220.01 528.932 1225.83 528.804C1233.96 528.625 1240.78 532.309 1246.32 539.855C1252 547.246 1255.71 559.05 1257.45 575.269L1227.87 589.954C1227.6 584.592 1226.81 580.238 1225.51 576.892C1224.21 573.547 1222.48 571.898 1220.34 571.945C1218.81 571.979 1217.29 572.856 1215.8 574.576C1214.3 576.296 1212.82 578.705 1211.35 581.805C1210.04 584.748 1208.89 588.224 1207.9 592.233C1206.92 596.243 1206.17 600.477 1205.65 604.936C1205.14 609.395 1204.92 613.618 1205.01 617.603C1205.09 621.436 1205.4 624.88 1205.93 627.936C1206.6 630.835 1207.5 633.116 1208.61 634.778C1209.72 636.441 1211.04 637.255 1212.57 637.222C1214.41 637.181 1216.31 636.219 1218.26 634.336C1220.21 632.452 1221.82 628.736 1223.08 623.187L1211.83 624.585L1213.33 598.326L1257.02 597.364ZM1280.41 531.974L1347.47 526.817L1342.91 570.398L1304.6 565.029L1302.18 580.496L1333.65 578.193L1328.65 622.934L1298.74 622.672L1295.4 648.742L1334.76 639.134L1328.76 679.986L1261.92 684.907L1280.41 531.974ZM1394.64 527.849L1431.13 523.595L1425.99 603.998L1453.68 534.371L1466.18 600.582L1480.61 524.347L1514.85 522.673L1478.15 674.167L1445.27 674.891L1443.3 616.96L1429.63 675.235L1393.76 676.024L1394.64 527.849ZM1527.14 525.623L1561.16 524.644L1542.82 673.894L1510.17 674.612L1527.14 525.623ZM1574.53 522.509L1648.53 518.58L1642.86 564.256L1621.17 561.513L1613.19 669.354L1577.17 673.828L1590.21 565.645L1567.92 567.056L1574.53 522.509ZM1660.67 519.693L1692.62 518.3L1681.64 583.878L1699.06 580.734L1705.98 518.926L1735.41 518.279L1716.63 668.228L1687.65 668.866L1691.8 616.782L1677.38 620.09L1672.51 670.809L1643.96 669.827L1660.67 519.693ZM1778.33 520.325L1812.29 516.126L1811.66 581.936L1828.35 514.163L1864.71 514.743L1827.31 613.569L1821.13 667.308L1784.82 669.028L1791.45 614.589L1778.33 520.325ZM1903.07 513.208C1908.74 513.083 1913.77 515.043 1918.15 519.088C1922.53 522.979 1926.18 528.42 1929.09 535.411C1932 542.249 1933.95 550.334 1934.92 559.669C1935.89 569.003 1935.8 578.974 1934.66 589.582C1933.36 600.193 1931.05 610.213 1927.73 619.641C1924.56 629.067 1920.68 637.281 1916.08 644.284C1911.63 651.283 1906.69 656.913 1901.26 661.174C1895.99 665.278 1890.51 667.392 1884.84 667.517C1879.32 667.638 1874.29 665.755 1869.76 661.867C1865.38 657.823 1861.73 652.382 1858.82 645.544C1855.91 638.706 1853.89 630.622 1852.76 621.291C1851.79 611.957 1851.96 601.984 1853.26 591.373C1854.4 580.765 1856.64 570.747 1859.96 561.319C1863.28 551.89 1867.16 543.676 1871.61 536.676C1876.2 529.52 1881.22 523.888 1886.65 519.781C1892.08 515.521 1897.55 513.33 1903.07 513.208ZM1890 619.782C1892.91 619.718 1895.6 616.591 1898.08 610.402C1900.7 604.209 1902.45 596.579 1903.32 587.511C1904.36 578.746 1904.27 571.309 1903.06 565.201C1901.85 559.093 1899.79 556.071 1896.88 556.135C1894.12 556.196 1891.43 559.322 1888.81 565.515C1886.18 571.707 1884.43 579.184 1883.55 587.946C1882.52 597.017 1882.61 604.607 1883.82 610.715C1885.18 616.82 1887.24 619.842 1890 619.782ZM1986.48 513.673L1974.67 604.345C1974.15 608.344 1974.07 611.72 1974.44 614.472C1974.64 616.922 1975.15 619.058 1975.96 620.881C1976.92 622.7 1978.62 623.199 1981.05 622.379C1983.33 621.562 1985.07 620.22 1986.25 618.353C1987.44 616.333 1988.31 614.244 1988.88 612.084C1989.44 609.618 1989.91 606.923 1990.31 604.001L2000.06 514.064L2033.11 510.346C2031.58 524.643 2030.12 538.402 2028.73 551.623C2027.93 557.315 2027.14 563.16 2026.35 569.159C2025.72 575.155 2025.08 581.073 2024.44 586.915C2023.8 592.758 2023.08 598.295 2022.28 603.527C2021.62 608.756 2021.04 613.37 2020.51 617.369C2019.16 625.528 2017.17 632.78 2014.55 639.126C2011.92 645.318 2008.43 650.533 2004.08 654.77C1999.87 658.85 1994.88 661.951 1989.1 664.072C1983.47 666.036 1976.81 666.796 1969.14 666.352C1965.3 666.283 1961.99 665.512 1959.19 664.04C1956.4 662.568 1954.06 660.779 1952.17 658.673C1950.28 656.414 1948.69 653.918 1947.41 651.186C1946.27 648.45 1945.44 645.631 1944.92 642.729C1943.24 636.017 1942.69 628.438 1943.27 619.99L1955.28 517.58L1986.48 513.673ZM2077.45 661.437L2076.17 603.261L2068.48 661.635L2036.29 662.343L2055.07 512.164L2087.46 510.3C2088.38 510.28 2089.99 510.245 2092.29 510.194C2094.75 510.14 2097.51 510.539 2100.6 511.391C2103.84 512.087 2107.01 513.474 2110.12 515.553C2113.39 517.475 2116.14 520.405 2118.37 524.344C2120.76 528.279 2122.48 533.379 2123.54 539.644C2124.75 545.905 2124.69 553.652 2123.36 562.883C2121.92 574.264 2119.22 583.756 2115.24 591.359C2111.42 598.805 2107.18 604.649 2102.52 608.893L2114.39 657.173L2077.45 661.437ZM2094.48 567.89C2094.84 563.127 2094.68 559.373 2094 556.628C2093.33 553.882 2092.14 551.914 2090.42 550.725C2088.71 549.382 2086.93 548.655 2085.08 548.542C2083.24 548.276 2081.71 548.463 2080.5 549.103L2077.36 584.37C2080.13 584.616 2082.65 584.254 2084.93 583.284C2087.05 582.317 2089.01 580.74 2090.81 578.553C2092.6 576.213 2093.82 572.659 2094.48 567.89ZM144.54 793.26L212.053 787.633L206.28 828.48L171.579 830.164L167.87 849.8L201.376 846.072L195.803 885.534L163.34 884.408L154.953 942.337L125.52 942.985L144.54 793.26ZM248.587 937.745L247.306 879.569L239.619 937.943L207.427 938.651L226.207 788.472L258.604 786.608C259.523 786.588 261.133 786.553 263.433 786.502C265.885 786.448 268.655 786.847 271.741 787.7C274.977 788.395 278.152 789.782 281.265 791.861C284.528 793.783 287.276 796.713 289.51 800.652C291.897 804.587 293.62 809.687 294.678 815.952C295.889 822.213 295.83 829.96 294.499 839.191C293.063 850.572 290.358 860.064 286.384 867.667C282.56 875.113 278.318 880.957 273.657 885.201L285.532 933.481L248.587 937.745ZM265.623 844.198C265.978 839.436 265.819 835.682 265.145 832.936C264.471 830.19 263.277 828.222 261.564 827.033C259.847 825.691 258.067 824.963 256.225 824.85C254.378 824.584 252.849 824.771 251.636 825.411L248.501 860.679C251.267 860.924 253.79 860.562 256.069 859.592C258.195 858.625 260.154 857.048 261.946 854.861C263.735 852.521 264.961 848.967 265.623 844.198ZM315.802 788.34L349.828 787.361L331.488 936.611L298.836 937.33L315.802 788.34ZM371.549 788.034L438.612 782.877L434.05 826.458L395.742 821.089L393.322 836.556L424.789 834.253L419.792 878.994L389.879 878.732L386.542 904.802L425.9 895.194L419.898 936.046L353.06 940.967L371.549 788.034ZM490.27 781.05L504.321 855.048L513.034 780.549L540.398 779.946L522.563 931.255L489.67 931.519L480.013 858.574C478.644 873.021 477.471 885.93 476.494 897.301C475.989 902.22 475.48 906.986 474.968 911.598C474.61 916.207 474.164 920.358 473.632 924.05C473.25 927.586 472.931 930.507 472.675 932.813C472.419 935.12 472.214 936.274 472.061 936.278C471.908 936.281 471.371 936.293 470.451 936.313C469.531 936.334 468.305 936.361 466.772 936.394C465.389 936.271 463.776 936.153 461.933 936.041C460.244 935.924 458.401 935.812 456.404 935.702C452.259 935.487 447.421 935.21 441.893 934.871L459.553 786.097L490.27 781.05ZM590.394 779.306C592.386 779.262 594.839 779.208 597.752 779.144C600.818 779.077 603.974 779.621 607.22 780.776C610.616 781.775 613.879 783.697 617.009 786.542C620.136 789.234 622.758 793.394 624.876 799.022C627.147 804.647 628.688 811.975 629.501 821.006C630.463 829.88 630.249 841.081 628.86 854.608C627.686 863.989 626.105 872.306 624.118 879.558C622.283 886.807 620.046 893.145 617.404 898.571C614.913 903.84 612.175 908.348 609.19 912.095C606.205 915.841 603.283 918.973 600.425 921.49C593.498 927.317 586.06 930.855 578.113 932.103L543.621 932.862L562.866 782.903C566.075 782.372 569.208 781.843 572.263 781.316C575.016 780.948 577.999 780.576 581.211 780.198C584.42 779.668 587.481 779.37 590.394 779.306ZM579.769 881.915L581.608 881.874C582.681 881.851 583.908 881.824 585.287 881.793C586.817 881.606 588.335 880.883 589.841 879.623C591.343 878.209 592.749 875.878 594.058 872.628C595.517 869.222 596.553 864.061 597.168 857.146C597.922 849.614 598.324 843.47 598.373 838.715C598.575 833.956 598.264 830.282 597.44 827.693C596.616 825.104 595.198 823.371 593.185 822.495C591.321 821.463 588.933 820.978 586.021 821.042L579.769 881.915ZM721.511 796.435L706.795 838.629C701.455 832.919 696.597 828.194 692.22 824.456C690.5 822.961 688.707 821.62 686.84 820.434C684.97 819.095 683.262 818.135 681.716 817.556C680.169 816.977 678.864 816.929 677.801 817.412C676.735 817.742 676.067 818.754 675.798 820.447C675.255 823.68 675.849 826.274 677.579 828.23C679.459 830.029 681.874 831.739 684.824 833.361C687.927 834.98 691.114 836.904 694.383 839.132C697.807 841.358 700.71 844.361 703.094 848.143C706.598 854.047 708.661 860.674 709.283 868.022C709.901 875.216 709.445 882.358 707.914 889.447C706.379 896.382 703.99 902.8 700.746 908.699C697.501 914.599 693.922 919.202 690.007 922.509C684.583 926.923 679.121 929.65 673.623 930.691C668.275 931.576 662.979 931.386 657.737 930.121C652.491 928.703 647.608 926.356 643.088 923.081C638.722 919.803 634.808 916.209 631.348 912.297L648.726 865.673C653.597 870.934 658.063 875.284 662.127 878.722C663.847 880.218 665.563 881.56 667.277 882.749C669.143 883.935 670.773 884.82 672.166 885.403C673.713 885.982 675.021 886.183 676.09 886.006C677.16 885.829 677.986 885.044 678.569 883.651C679.578 880.715 679.681 878.412 678.877 876.743C678.074 875.073 676.66 873.571 674.637 872.235C672.61 870.746 670.122 869.19 667.173 867.568C664.223 865.946 660.878 863.796 657.138 861.117C654.642 859.178 652.353 856.238 650.272 852.296C648.192 848.354 646.864 843.782 646.29 838.581C645.715 833.379 645.895 827.623 646.83 821.314C647.765 815.006 649.997 808.438 653.528 801.612C656.905 794.79 660.776 789.49 665.141 785.713C669.506 781.936 673.897 779.385 678.316 778.061C682.884 776.58 687.476 776.173 692.092 776.838C696.705 777.35 700.951 778.637 704.83 780.698C708.706 782.607 712.133 784.985 715.11 787.834C718.083 790.529 720.217 793.396 721.511 796.435ZM842.546 775.827L845.249 919.552L809.229 924.026L809.44 891.814L794.549 894.672L788.574 926.321L755.227 926.825L786.91 777.512L842.546 775.827ZM797.563 874.821L813.783 869.633L810.115 817.951L797.563 874.821ZM900.532 772.02L914.583 846.019L923.296 771.519L950.659 770.917L932.824 922.226L899.932 922.49L890.275 849.545C888.906 863.992 887.733 876.901 886.756 888.271C886.251 893.19 885.742 897.956 885.23 902.569C884.872 907.178 884.426 911.328 883.894 915.021C883.512 918.557 883.193 921.478 882.937 923.784C882.681 926.09 882.476 927.245 882.323 927.248C882.169 927.252 881.633 927.264 880.713 927.284C879.793 927.304 878.567 927.331 877.034 927.365C875.651 927.242 874.038 927.124 872.195 927.011C870.505 926.895 868.663 926.782 866.666 926.673C862.521 926.457 857.683 926.18 852.155 925.842L869.815 777.067L900.532 772.02ZM1000.66 770.277C1002.65 770.233 1005.1 770.179 1008.01 770.115C1011.08 770.047 1014.24 770.591 1017.48 771.747C1020.88 772.746 1024.14 774.668 1027.27 777.513C1030.4 780.205 1033.02 784.365 1035.14 789.993C1037.41 795.617 1038.95 802.945 1039.76 811.976C1040.72 820.851 1040.51 832.051 1039.12 845.579C1037.95 854.96 1036.37 863.277 1034.38 870.529C1032.55 877.778 1030.31 884.115 1027.67 889.541C1025.18 894.811 1022.44 899.319 1019.45 903.065C1016.47 906.812 1013.55 909.944 1010.69 912.46C1003.76 918.288 996.322 921.825 988.375 923.074L953.883 923.833L973.128 773.873C976.337 773.343 979.47 772.814 982.525 772.286C985.278 771.919 988.26 771.546 991.473 771.169C994.682 770.638 997.743 770.341 1000.66 770.277ZM990.031 872.885L991.87 872.845C992.943 872.821 994.17 872.794 995.549 872.764C997.079 872.577 998.597 871.853 1000.1 870.593C1001.61 869.18 1003.01 866.848 1004.32 863.599C1005.78 860.192 1006.82 855.032 1007.43 848.117C1008.18 840.585 1008.59 834.441 1008.63 829.686C1008.84 824.927 1008.53 821.253 1007.7 818.663C1006.88 816.074 1005.46 814.342 1003.45 813.466C1001.58 812.433 999.195 811.949 996.283 812.013L990.031 872.885ZM1098.45 772.265L1165.96 766.639L1160.19 807.485L1125.49 809.169L1121.78 828.806L1155.29 825.078L1149.71 864.54L1117.25 863.414L1108.86 921.342L1079.43 921.99L1098.45 772.265ZM1243.38 767.005L1246.08 910.731L1210.06 915.204L1210.27 882.992L1195.38 885.85L1189.41 917.499L1156.06 918.003L1187.74 768.69L1243.38 767.005ZM1198.39 865.999L1214.61 860.811L1210.95 809.129L1198.39 865.999ZM1275.01 768.149L1304.67 767.267L1310.48 811.54L1324.9 766.361L1356.77 761.749L1349.1 914.905L1316.23 916.088L1318.73 851.848L1301.27 895.022L1294.6 853.299L1285.65 916.761L1253 917.48L1275.01 768.149ZM1383.34 764.845L1417.36 763.866L1399.02 913.116L1366.37 913.834L1383.34 764.845ZM1437.37 759.975L1469.77 758.342L1456.36 870.214L1488.39 861.917L1479.13 911.583L1420.51 913.563L1437.37 759.975ZM1491.94 762.685L1525.89 758.487L1525.27 824.296L1541.95 756.523L1578.32 757.103L1540.92 855.93L1534.74 909.669L1498.43 911.388L1505.06 856.949L1491.94 762.685ZM1601.28 877.377C1600.76 881.529 1599.78 885.539 1598.33 889.405C1597.03 893.114 1595.41 896.371 1593.48 899.174C1591.7 901.974 1589.68 904.242 1587.42 905.979C1585.15 907.562 1582.79 908.381 1580.34 908.435C1578.04 908.486 1575.96 907.765 1574.08 906.272C1572.21 904.626 1570.62 902.437 1569.34 899.705C1568.05 896.973 1567.21 893.77 1566.82 890.098C1566.43 886.272 1566.5 882.283 1567.02 878.131C1567.54 873.825 1568.45 869.817 1569.75 866.108C1570.89 862.402 1572.43 859.147 1574.36 856.344C1576.3 853.541 1578.4 851.347 1580.66 849.764C1582.92 848.027 1585.2 847.133 1587.5 847.083C1589.96 847.029 1592.12 847.825 1594 849.47C1595.87 850.963 1597.37 853.077 1598.51 855.813C1599.8 858.545 1600.71 861.746 1601.25 865.415C1601.79 869.084 1601.8 873.071 1601.28 877.377ZM1658.01 756.729L1732 752.8L1726.34 798.476L1704.65 795.733L1696.67 903.574L1660.65 908.048L1673.68 799.865L1651.4 801.276L1658.01 756.729ZM1744.12 753.914L1776.07 752.521L1765.09 818.098L1782.51 814.954L1789.43 753.147L1818.86 752.499L1800.08 902.449L1771.1 903.086L1775.25 851.003L1760.83 854.311L1755.96 905.03L1727.41 904.048L1744.12 753.914ZM1839.91 755.717L1906.98 750.56L1902.41 794.141L1864.11 788.772L1861.69 804.239L1893.15 801.936L1888.16 846.677L1858.24 846.415L1854.91 872.485L1894.27 862.877L1888.26 903.729L1821.42 908.65L1839.91 755.717ZM1968.44 752.888L1998.1 752.005L2003.9 796.278L2018.32 751.1L2050.2 746.487L2042.53 899.643L2009.66 900.827L2012.15 836.586L1994.7 879.761L1988.03 838.037L1979.07 901.5L1946.42 902.219L1968.44 752.888ZM2111.37 744.681C2117.04 744.556 2122.07 746.516 2126.45 750.56C2130.83 754.452 2134.48 759.893 2137.4 766.884C2140.31 773.721 2142.25 781.807 2143.22 791.141C2144.19 800.476 2144.11 810.447 2142.96 821.054C2141.66 831.666 2139.35 841.685 2136.03 851.114C2132.86 860.539 2128.98 868.754 2124.38 875.756C2119.93 882.756 2114.99 888.386 2109.57 892.646C2104.29 896.75 2098.81 898.865 2093.14 898.989C2087.62 899.111 2082.6 897.228 2078.06 893.34C2073.68 889.295 2070.03 883.854 2067.12 877.017C2064.21 870.179 2062.19 862.095 2061.07 852.764C2060.09 843.43 2060.26 833.457 2061.56 822.846C2062.71 812.238 2064.94 802.22 2068.26 792.791C2071.58 783.363 2075.46 775.148 2079.91 768.149C2084.51 760.993 2089.52 755.361 2094.95 751.254C2100.38 746.993 2105.85 744.802 2111.37 744.681ZM2098.3 851.254C2101.22 851.19 2103.91 848.064 2106.38 841.874C2109 835.682 2110.75 828.051 2111.63 818.983C2112.66 810.218 2112.57 802.782 2111.36 796.674C2110.16 790.565 2108.1 787.543 2105.18 787.607C2102.42 787.668 2099.73 790.795 2097.11 796.987C2094.48 803.18 2092.73 810.657 2091.85 819.419C2090.82 828.49 2090.91 836.08 2092.12 842.188C2093.48 848.293 2095.54 851.315 2098.3 851.254ZM2187.62 895.07L2186.34 836.894L2178.65 895.267L2146.46 895.975L2165.24 745.796L2197.64 743.933C2198.56 743.912 2200.17 743.877 2202.46 743.826C2204.92 743.772 2207.69 744.171 2210.77 745.024C2214.01 745.719 2217.18 747.107 2220.3 749.185C2223.56 751.107 2226.31 754.037 2228.54 757.976C2230.93 761.911 2232.65 767.011 2233.71 773.276C2234.92 779.537 2234.86 787.284 2233.53 796.515C2232.1 807.897 2229.39 817.388 2225.42 824.991C2221.59 832.437 2217.35 838.282 2212.69 842.525L2224.56 890.806L2187.62 895.07ZM2204.65 801.522C2205.01 796.76 2204.85 793.006 2204.18 790.26C2203.5 787.514 2202.31 785.547 2200.6 784.357C2198.88 783.015 2197.1 782.287 2195.26 782.174C2193.41 781.908 2191.88 782.095 2190.67 782.735L2187.53 818.003C2190.3 818.249 2192.82 817.886 2195.1 816.916C2197.23 815.949 2199.19 814.372 2200.98 812.186C2202.77 809.846 2203.99 806.291 2204.65 801.522ZM2256.46 746.549L2323.53 741.392L2318.96 784.973L2280.66 779.604L2278.24 795.071L2309.7 792.769L2304.71 837.509L2274.79 837.247L2271.46 863.317L2310.81 853.709L2304.81 894.561L2237.97 899.483L2256.46 746.549ZM2358.2 869.46C2357.46 877.605 2356.09 884.997 2354.09 891.636C2352.09 898.275 2349.99 903.919 2347.79 908.568C2345.31 914.145 2342.65 919.034 2339.83 923.237L2333.26 917.4C2334.71 913.381 2335.62 909.45 2335.99 905.607C2336.52 901.761 2336.75 898.152 2336.68 894.78C2334.52 894.52 2332.59 893.566 2330.86 891.917C2329.29 890.111 2327.94 887.917 2326.81 885.335C2325.67 882.599 2324.91 879.472 2324.53 875.952C2324.14 872.433 2324.22 868.674 2324.74 864.675C2325.26 860.369 2326.17 856.362 2327.47 852.652C2328.76 848.789 2330.3 845.458 2332.08 842.658C2334.01 839.855 2336.11 837.662 2338.38 836.078C2340.64 834.341 2342.99 833.446 2345.45 833.392C2347.75 833.341 2349.84 834.139 2351.71 835.785C2353.59 837.277 2355.17 839.39 2356.45 842.122C2357.74 844.854 2358.58 848.133 2358.97 851.959C2359.51 855.628 2359.52 859.615 2359 863.921C2358.86 864.384 2358.72 864.924 2358.58 865.541C2358.59 866.001 2358.6 866.461 2358.61 866.92C2358.47 867.537 2358.33 868.383 2358.2 869.46ZM296.872 1022.74L370.864 1018.81L365.197 1064.49L343.512 1061.75L335.533 1169.59L299.512 1174.06L312.545 1065.88L290.261 1067.29L296.872 1022.74ZM383.013 1019.93L414.96 1018.53L403.98 1084.11L421.395 1080.97L428.317 1019.16L457.75 1018.51L438.965 1168.46L409.992 1169.1L414.137 1117.02L399.716 1120.32L394.851 1171.04L366.302 1170.06L383.013 1019.93ZM478.802 1021.73L545.865 1016.57L541.303 1060.15L502.996 1054.79L500.575 1070.25L532.042 1067.95L527.045 1112.69L497.132 1112.43L493.795 1138.5L533.153 1128.89L527.151 1169.74L460.313 1174.66L478.802 1021.73ZM607.329 1018.9L636.986 1018.02L642.792 1062.29L657.211 1017.11L689.088 1012.5L681.416 1165.66L648.544 1166.84L651.041 1102.6L633.587 1145.77L626.917 1104.05L617.961 1167.51L585.309 1168.23L607.329 1018.9ZM717.28 1016.48L784.343 1011.32L779.78 1054.91L741.473 1049.54L739.053 1065L770.52 1062.7L765.523 1107.44L735.61 1107.18L732.273 1133.25L771.631 1123.64L765.628 1164.49L698.79 1169.42L717.28 1016.48ZM828.753 1161.03L827.472 1102.86L819.785 1161.23L787.593 1161.94L806.373 1011.76L838.77 1009.9C839.689 1009.88 841.299 1009.84 843.598 1009.79C846.051 1009.74 848.821 1010.14 851.907 1010.99C855.143 1011.68 858.317 1013.07 861.431 1015.15C864.694 1017.07 867.442 1020 869.676 1023.94C872.063 1027.88 873.786 1032.98 874.844 1039.24C876.055 1045.5 875.996 1053.25 874.665 1062.48C873.229 1073.86 870.524 1083.35 866.55 1090.96C862.726 1098.4 858.484 1104.25 853.823 1108.49L865.698 1156.77L828.753 1161.03ZM845.788 1067.49C846.144 1062.72 845.984 1058.97 845.311 1056.22C844.637 1053.48 843.443 1051.51 841.73 1050.32C840.013 1048.98 838.233 1048.25 836.39 1048.14C834.544 1047.87 833.015 1048.06 831.802 1048.7L828.667 1083.97C831.433 1084.21 833.956 1083.85 836.235 1082.88C838.361 1081.91 840.32 1080.34 842.112 1078.15C843.901 1075.81 845.127 1072.26 845.788 1067.49ZM920.147 1159.02L918.866 1100.85L911.179 1159.22L878.987 1159.93L897.767 1009.75L930.163 1007.89C931.083 1007.87 932.693 1007.83 934.992 1007.78C937.445 1007.73 940.214 1008.12 943.301 1008.98C946.537 1009.67 949.711 1011.06 952.825 1013.14C956.088 1015.06 958.836 1017.99 961.07 1021.93C963.457 1025.86 965.18 1030.96 966.238 1037.23C967.449 1043.49 967.39 1051.24 966.059 1060.47C964.623 1071.85 961.917 1081.34 957.944 1088.94C954.12 1096.39 949.878 1102.23 945.216 1106.48L957.092 1154.76L920.147 1159.02ZM937.182 1065.47C937.538 1060.71 937.378 1056.96 936.704 1054.21C936.03 1051.47 934.837 1049.5 933.124 1048.31C931.407 1046.97 929.627 1046.24 927.784 1046.13C925.938 1045.86 924.408 1046.05 923.196 1046.69L920.061 1081.96C922.827 1082.2 925.35 1081.84 927.629 1080.87C929.755 1079.9 931.714 1078.32 933.506 1076.14C935.295 1073.8 936.52 1070.24 937.182 1065.47ZM987.361 1009.62L1021.39 1008.64L1003.05 1157.89L970.396 1158.61L987.361 1009.62ZM1043.11 1009.31L1110.17 1004.15L1105.61 1047.73L1067.3 1042.37L1064.88 1057.83L1096.35 1055.53L1091.35 1100.27L1061.44 1100.01L1058.1 1126.08L1097.46 1116.47L1091.46 1157.32L1024.62 1162.24L1043.11 1009.31ZM1154.58 1153.86L1153.3 1095.69L1145.61 1154.06L1113.42 1154.77L1132.2 1004.59L1164.6 1002.73C1165.52 1002.71 1167.13 1002.67 1169.43 1002.62C1171.88 1002.57 1174.65 1002.96 1177.74 1003.82C1180.97 1004.51 1184.15 1005.9 1187.26 1007.98C1190.52 1009.9 1193.27 1012.83 1195.51 1016.77C1197.89 1020.7 1199.62 1025.8 1200.67 1032.07C1201.88 1038.33 1201.83 1046.08 1200.49 1055.31C1199.06 1066.69 1196.35 1076.18 1192.38 1083.78C1188.56 1091.23 1184.31 1097.07 1179.65 1101.32L1191.53 1149.6L1154.58 1153.86ZM1171.62 1060.32C1171.97 1055.55 1171.81 1051.8 1171.14 1049.05C1170.47 1046.31 1169.27 1044.34 1167.56 1043.15C1165.84 1041.81 1164.06 1041.08 1162.22 1040.97C1160.37 1040.7 1158.84 1040.89 1157.63 1041.53L1154.5 1076.8C1157.26 1077.04 1159.78 1076.68 1162.06 1075.71C1164.19 1074.74 1166.15 1073.17 1167.94 1070.98C1169.73 1068.64 1170.96 1065.08 1171.62 1060.32ZM1236.24 1130.21C1235.5 1138.36 1234.13 1145.75 1232.13 1152.39C1230.13 1159.02 1228.03 1164.67 1225.83 1169.32C1223.35 1174.89 1220.69 1179.78 1217.87 1183.99L1211.3 1178.15C1212.75 1174.13 1213.66 1170.2 1214.03 1166.36C1214.56 1162.51 1214.79 1158.9 1214.72 1155.53C1212.56 1155.27 1210.62 1154.32 1208.9 1152.67C1207.33 1150.86 1205.98 1148.67 1204.85 1146.08C1203.71 1143.35 1202.95 1140.22 1202.57 1136.7C1202.18 1133.18 1202.25 1129.42 1202.78 1125.43C1203.3 1121.12 1204.21 1117.11 1205.51 1113.4C1206.8 1109.54 1208.34 1106.21 1210.12 1103.41C1212.05 1100.61 1214.15 1098.41 1216.41 1096.83C1218.68 1095.09 1221.03 1094.2 1223.49 1094.14C1225.79 1094.09 1227.87 1094.89 1229.75 1096.53C1231.62 1098.03 1233.2 1100.14 1234.49 1102.87C1235.78 1105.6 1236.62 1108.88 1237.01 1112.71C1237.55 1116.38 1237.56 1120.37 1237.04 1124.67C1236.9 1125.13 1236.76 1125.67 1236.62 1126.29C1236.63 1126.75 1236.64 1127.21 1236.65 1127.67C1236.51 1128.29 1236.37 1129.13 1236.24 1130.21ZM1292.77 1000.82L1366.77 996.896L1361.1 1042.57L1339.41 1039.83L1331.43 1147.67L1295.41 1152.14L1308.45 1043.96L1286.16 1045.37L1292.77 1000.82ZM1378.91 998.009L1410.86 996.616L1399.88 1062.19L1417.3 1059.05L1424.22 997.242L1453.65 996.594L1434.87 1146.54L1405.89 1147.18L1410.04 1095.1L1395.62 1098.41L1390.75 1149.12L1362.2 1148.14L1378.91 998.009ZM1474.7 999.812L1541.77 994.655L1537.2 1038.24L1498.9 1032.87L1496.48 1048.33L1527.94 1046.03L1522.95 1090.77L1493.03 1090.51L1489.7 1116.58L1529.05 1106.97L1523.05 1147.82L1456.21 1152.75L1474.7 999.812ZM1591.21 994.257L1665.2 990.328L1659.53 1036L1637.85 1033.26L1629.87 1141.1L1593.85 1145.58L1606.88 1037.39L1584.6 1038.8L1591.21 994.257ZM1742.7 992.073L1745.41 1135.8L1709.39 1140.27L1709.6 1108.06L1694.71 1110.92L1688.73 1142.57L1655.38 1143.07L1687.07 993.757L1742.7 992.073ZM1697.72 1091.07L1713.94 1085.88L1710.27 1034.2L1697.72 1091.07ZM1839.26 1007.89L1824.55 1050.09C1819.21 1044.38 1814.35 1039.65 1809.97 1035.91C1808.25 1034.42 1806.46 1033.08 1804.59 1031.89C1802.72 1030.55 1801.01 1029.59 1799.47 1029.01C1797.92 1028.43 1796.61 1028.39 1795.55 1028.87C1794.49 1029.2 1793.82 1030.21 1793.55 1031.9C1793.01 1035.14 1793.6 1037.73 1795.33 1039.69C1797.21 1041.49 1799.62 1043.2 1802.57 1044.82C1805.68 1046.44 1808.86 1048.36 1812.13 1050.59C1815.56 1052.81 1818.46 1055.82 1820.84 1059.6C1824.35 1065.5 1826.41 1072.13 1827.03 1079.48C1827.65 1086.67 1827.2 1093.81 1825.66 1100.9C1824.13 1107.84 1821.74 1114.26 1818.5 1120.16C1815.25 1126.06 1811.67 1130.66 1807.76 1133.97C1802.33 1138.38 1796.87 1141.11 1791.37 1142.15C1786.03 1143.03 1780.73 1142.84 1775.49 1141.58C1770.24 1140.16 1765.36 1137.81 1760.84 1134.54C1756.47 1131.26 1752.56 1127.67 1749.1 1123.75L1766.48 1077.13C1771.35 1082.39 1775.81 1086.74 1779.88 1090.18C1781.6 1091.67 1783.31 1093.02 1785.03 1094.21C1786.89 1095.39 1788.52 1096.28 1789.92 1096.86C1791.46 1097.44 1792.77 1097.64 1793.84 1097.46C1794.91 1097.29 1795.74 1096.5 1796.32 1095.11C1797.33 1092.17 1797.43 1089.87 1796.63 1088.2C1795.82 1086.53 1794.41 1085.03 1792.39 1083.69C1790.36 1082.2 1787.87 1080.65 1784.92 1079.02C1781.97 1077.4 1778.63 1075.25 1774.89 1072.57C1772.39 1070.64 1770.1 1067.69 1768.02 1063.75C1765.94 1059.81 1764.61 1055.24 1764.04 1050.04C1763.47 1044.84 1763.65 1039.08 1764.58 1032.77C1765.52 1026.46 1767.75 1019.9 1771.28 1013.07C1774.66 1006.25 1778.53 1000.95 1782.89 997.17C1787.26 993.393 1791.65 990.842 1796.07 989.518C1800.63 988.037 1805.23 987.629 1809.84 988.295C1814.46 988.807 1818.7 990.093 1822.58 992.155C1826.46 994.064 1829.88 996.442 1832.86 999.291C1835.83 1001.99 1837.97 1004.85 1839.26 1007.89ZM1851.92 988.519L1925.91 984.59L1920.24 1030.27L1898.55 1027.52L1890.58 1135.36L1854.56 1139.84L1867.59 1031.65L1845.3 1033.07L1851.92 988.519ZM1938.35 988.687L1972.38 987.708L1954.04 1136.96L1921.39 1137.68L1938.35 988.687ZM1994.1 988.38L2061.16 983.223L2056.6 1026.8L2018.29 1021.44L2015.87 1036.9L2047.34 1034.6L2042.34 1079.34L2012.43 1079.08L2009.09 1105.15L2048.45 1095.54L2042.45 1136.39L1975.61 1141.31L1994.1 988.38ZM2105.57 1132.93L2104.29 1074.76L2096.6 1133.13L2064.41 1133.84L2083.19 983.659L2115.59 981.795C2116.51 981.775 2118.12 981.74 2120.42 981.689C2122.87 981.635 2125.64 982.034 2128.73 982.887C2131.96 983.582 2135.14 984.969 2138.25 987.048C2141.51 988.97 2144.26 991.9 2146.5 995.839C2148.88 999.774 2150.61 1004.87 2151.66 1011.14C2152.88 1017.4 2152.82 1025.15 2151.48 1034.38C2150.05 1045.76 2147.34 1055.25 2143.37 1062.85C2139.55 1070.3 2135.3 1076.14 2130.64 1080.39L2142.52 1128.67L2105.57 1132.93ZM2122.61 1039.38C2122.96 1034.62 2122.8 1030.87 2122.13 1028.12C2121.46 1025.38 2120.26 1023.41 2118.55 1022.22C2116.83 1020.88 2115.05 1020.15 2113.21 1020.04C2111.36 1019.77 2109.83 1019.96 2108.62 1020.6L2105.49 1055.87C2108.25 1056.11 2110.78 1055.75 2113.05 1054.78C2115.18 1053.81 2117.14 1052.24 2118.93 1050.05C2120.72 1047.71 2121.95 1044.15 2122.61 1039.38ZM2194.64 1090.25L2181.53 1090.54L2173.19 972.706L2197.79 972.164L2194.64 1090.25ZM2174.46 1124.51C2174.33 1118.84 2175.62 1114.83 2178.33 1112.47C2181.04 1110.11 2184.39 1108.88 2188.37 1108.79C2192.21 1108.71 2195.53 1109.79 2198.34 1112.03C2201.3 1114.26 2202.84 1118.22 2202.97 1123.89C2203.09 1129.41 2201.72 1133.42 2198.86 1135.94C2196.16 1138.45 2192.89 1139.75 2189.06 1139.84C2185.07 1139.92 2181.67 1138.77 2178.86 1136.38C2176.04 1133.99 2174.58 1130.03 2174.46 1124.51Z" fill="white"/>
<path d="M485.299 132.297L468.505 179.114C462.618 172.705 457.257 167.399 452.423 163.196C450.523 161.514 448.54 160.004 446.474 158.666C444.406 157.157 442.515 156.072 440.799 155.412C439.084 154.752 437.632 154.686 436.444 155.213C435.254 155.57 434.501 156.69 434.184 158.571C433.549 162.164 434.184 165.057 436.09 167.251C438.165 169.272 440.836 171.2 444.103 173.034C447.541 174.866 451.068 177.039 454.686 179.552C458.474 182.062 461.676 185.434 464.291 189.666C468.133 196.272 470.364 203.668 470.984 211.852C471.601 219.866 471.023 227.81 469.249 235.685C467.472 243.389 464.75 250.508 461.08 257.042C457.411 263.576 453.382 268.664 448.992 272.306C442.911 277.165 436.806 280.147 430.676 281.252C424.714 282.184 418.822 281.92 413 280.46C407.175 278.83 401.764 276.17 396.766 272.481C391.938 268.789 387.618 264.75 383.805 260.362L403.607 208.641C408.976 214.545 413.905 219.43 418.393 223.296C420.293 224.978 422.19 226.489 424.085 227.83C426.151 229.168 427.956 230.169 429.501 230.831C431.217 231.491 432.671 231.728 433.863 231.542C435.055 231.355 435.983 230.49 436.645 228.945C437.797 225.687 437.934 223.125 437.056 221.259C436.178 219.393 434.62 217.707 432.381 216.2C430.14 214.523 427.386 212.767 424.119 210.932C420.852 209.097 417.151 206.671 413.015 203.653C410.255 201.471 407.737 198.176 405.46 193.768C403.183 189.36 401.751 184.258 401.163 178.463C400.574 172.667 400.832 166.264 401.934 159.251C403.037 152.239 405.587 144.951 409.584 137.389C413.41 129.828 417.771 123.968 422.666 119.807C427.561 115.647 432.474 112.851 437.405 111.421C442.504 109.818 447.619 109.409 452.75 110.195C457.879 110.81 462.592 112.285 466.889 114.618C471.185 116.78 474.975 119.461 478.26 122.661C481.543 125.69 483.889 128.902 485.299 132.297ZM578.646 185.347C577.71 192.016 576.165 197.84 574.012 202.818C572.029 207.793 569.781 212.09 567.268 215.707C564.926 219.322 562.235 222.345 559.195 224.774C556.325 227.201 553.45 229.202 550.569 230.776C543.79 234.449 536.477 236.423 528.629 236.697L525.061 276.939L486.948 279.488L507.54 112.547L552.575 110.675C559.742 110.581 565.665 113.149 570.342 118.379C572.419 120.57 574.249 123.448 575.832 127.011C577.585 130.572 578.925 135.078 579.85 140.527C580.772 145.806 581.197 152.116 581.122 159.456C581.048 166.797 580.223 175.427 578.646 185.347ZM531.594 189.55C534.672 190.021 537.571 189.813 540.29 188.924C542.668 188.039 544.866 186.474 546.885 184.228C548.904 181.983 550.307 178.38 551.095 173.42C551.715 168.633 551.662 164.623 550.937 161.389C550.212 158.156 548.985 155.697 547.256 154.013C545.695 152.156 543.717 150.987 541.321 150.507C539.096 150.024 537.136 150.22 535.441 151.096L531.594 189.55ZM627.489 276.105L626.638 211.343L617.506 276.236L581.669 276.707L604.053 109.743L640.129 107.989C641.153 107.975 642.945 107.952 645.505 107.918C648.235 107.882 651.314 108.354 654.74 109.333C658.335 110.139 661.855 111.714 665.299 114.058C668.912 116.23 671.942 119.518 674.39 123.924C677.008 128.327 678.875 134.02 679.991 141.004C681.277 147.985 681.134 156.606 679.562 166.867C677.851 179.52 674.747 190.058 670.249 198.481C665.92 206.73 661.14 213.193 655.911 217.871L668.651 271.724L627.489 276.105ZM647.373 172.155C647.816 166.858 647.675 162.678 646.952 159.615C646.229 156.553 644.92 154.351 643.025 153.01C641.128 151.499 639.154 150.672 637.104 150.528C635.052 150.214 633.347 150.407 631.991 151.107L628.154 190.329C631.23 190.63 634.042 190.252 636.588 189.194C638.964 188.139 641.16 186.403 643.176 183.987C645.19 181.4 646.589 177.456 647.373 172.155ZM705.579 111.481L780.27 106.403L774.763 154.863L732.18 148.51L729.333 165.701L764.379 163.449L758.376 213.196L725.085 212.609L721.114 241.592L765.014 231.286L757.93 276.695L683.491 281.514L705.579 111.481ZM874.699 107.21L876.29 267.203L836.155 271.827L836.708 235.976L820.107 239.011L813.144 274.177L776.024 274.409L812.759 108.536L874.699 107.21ZM823.657 216.946L841.761 211.332L838.188 153.774L823.657 216.946ZM937.49 104.081C939.708 104.051 942.438 104.015 945.681 103.973C949.094 103.928 952.601 104.565 956.203 105.883C959.973 107.028 963.586 109.199 967.041 112.397C970.495 115.424 973.372 120.08 975.674 126.365C978.146 132.647 979.789 140.819 980.604 150.878C981.588 160.765 981.239 173.229 979.56 188.271C978.16 198.701 976.319 207.942 974.035 215.994C971.922 224.044 969.369 231.075 966.376 237.088C963.551 242.929 960.459 247.919 957.1 252.06C953.741 256.2 950.458 259.657 947.251 262.43C939.484 268.847 931.172 272.711 922.313 274.023L883.917 274.527L906.816 107.812C910.393 107.253 913.885 106.695 917.291 106.138C920.358 105.756 923.681 105.371 927.261 104.983C930.837 104.424 934.247 104.123 937.49 104.081ZM924.652 218.179L926.7 218.152C927.894 218.136 929.259 218.119 930.795 218.098C932.5 217.905 934.196 217.115 935.885 215.727C937.571 214.169 939.158 211.588 940.647 207.984C942.304 204.207 943.509 198.474 944.261 190.783C945.176 182.408 945.683 175.574 945.784 170.281C946.056 164.987 945.746 160.894 944.855 158.004C943.963 155.115 942.402 153.172 940.17 152.177C938.106 151.01 935.453 150.447 932.211 150.49L924.652 218.179ZM1036.28 103.806L1118.68 100.163L1111.92 150.944L1087.81 147.677L1077.86 267.626L1037.73 272.25L1053.3 151.971L1028.49 153.321L1036.28 103.806ZM1132.19 101.522L1167.76 100.286L1154.89 173.166L1174.3 169.838L1182.62 101.115L1215.38 100.684L1193 267.393L1160.74 267.817L1165.87 209.888L1149.79 213.428L1143.87 269.831L1112.11 268.456L1132.19 101.522ZM1238.78 104.473L1313.47 99.3953L1307.97 147.856L1265.38 141.503L1262.54 158.694L1297.58 156.441L1291.58 206.188L1258.29 205.602L1254.32 234.584L1298.22 224.279L1291.13 269.688L1216.7 274.506L1238.78 104.473ZM1378.54 102.893L1453.73 97.2959L1446.91 142.702L1408.27 144.233L1403.94 166.052L1441.27 162.233L1434.68 206.1L1398.56 204.526L1388.65 268.918L1355.89 269.349L1378.54 102.893ZM1467.4 96.3482L1503.48 94.8499L1487.45 219.231L1523.18 210.313L1512.38 265.5L1447.12 267.126L1467.4 96.3482ZM1629.13 97.295L1630.72 257.288L1590.59 261.912L1591.14 226.061L1574.54 229.096L1567.58 264.262L1530.46 264.494L1567.19 98.621L1629.13 97.295ZM1578.09 207.031L1596.2 201.417L1592.62 143.859L1578.09 207.031ZM1703.96 94.2633L1744.9 91.9332L1704.11 261.444L1645.79 265.283L1643.58 96.8491L1683.74 94.2731L1678.07 227.735L1703.96 94.2633ZM1799 91.4782C1805.31 91.3952 1810.89 93.6262 1815.73 98.171C1820.57 102.545 1824.57 108.637 1827.75 116.447C1830.92 124.086 1833 133.104 1833.99 143.503C1834.98 153.901 1834.79 164.998 1833.4 176.793C1831.85 188.591 1829.18 199.72 1825.39 210.182C1821.78 220.641 1817.37 229.745 1812.18 237.494C1807.17 245.24 1801.61 251.458 1795.53 256.146C1789.62 260.661 1783.5 262.961 1777.19 263.044C1771.05 263.124 1765.47 260.979 1760.46 256.607C1755.62 252.062 1751.62 245.97 1748.45 238.331C1745.27 230.692 1743.11 221.675 1741.95 211.278C1740.96 200.88 1741.24 189.782 1742.79 177.984C1744.17 166.189 1746.75 155.061 1750.54 144.6C1754.33 134.138 1758.73 125.034 1763.75 117.288C1768.94 109.368 1774.58 103.15 1780.66 98.6318C1786.74 93.9435 1792.86 91.559 1799 91.4782ZM1783.4 209.965C1786.65 209.923 1789.67 206.469 1792.48 199.605C1795.47 192.739 1797.49 184.263 1798.55 174.179C1799.79 164.434 1799.76 156.156 1798.48 149.346C1797.2 142.536 1794.93 139.152 1791.69 139.194C1788.62 139.235 1785.59 142.688 1782.61 149.555C1779.63 156.421 1777.6 164.726 1776.54 174.469C1775.3 184.555 1775.33 193.003 1776.61 199.814C1778.07 206.622 1780.33 210.006 1783.4 209.965ZM1882.38 259.613L1881.53 194.851L1872.4 259.744L1836.56 260.215L1858.94 93.2506L1895.02 91.4964C1896.04 91.483 1897.84 91.4594 1900.4 91.4258C1903.13 91.3899 1906.21 91.8615 1909.63 92.8405C1913.23 93.6467 1916.75 95.2219 1920.19 97.5662C1923.8 99.7376 1926.83 103.026 1929.28 107.432C1931.9 111.835 1933.77 117.528 1934.88 124.511C1936.17 131.492 1936.03 140.114 1934.45 150.375C1932.74 163.028 1929.64 173.566 1925.14 181.988C1920.81 190.238 1916.03 196.701 1910.8 201.379L1923.54 255.232L1882.38 259.613ZM1902.26 155.663C1902.71 150.366 1902.57 146.186 1901.84 143.123C1901.12 140.06 1899.81 137.859 1897.92 136.518C1896.02 135.007 1894.05 134.18 1892 134.036C1889.94 133.721 1888.24 133.915 1886.88 134.615L1883.05 173.837C1886.12 174.138 1888.93 173.76 1891.48 172.702C1893.86 171.647 1896.05 169.911 1898.07 167.495C1900.08 164.908 1901.48 160.964 1902.26 155.663Z" fill="white"/>
</svg>
